<svg id="visual" viewBox="0 0 1920 1080" width="1920" height="1080" xmlns="http://www.w3.org/2000/svg" xmlns:xlink="http://www.w3.org/1999/xlink" version="1.1"><rect x="0" y="0" width="1920" height="1080" fill="#ffffff"></rect><defs><linearGradient id="grad1_0" x1="43.8%" y1="0%" x2="100%" y2="100%"><stop offset="14.444444444444446%" stop-color="#2196f3" stop-opacity="1"></stop><stop offset="85.55555555555554%" stop-color="#2196f3" stop-opacity="1"></stop></linearGradient></defs><defs><linearGradient id="grad1_1" x1="43.8%" y1="0%" x2="100%" y2="100%"><stop offset="14.444444444444446%" stop-color="#2196f3" stop-opacity="1"></stop><stop offset="85.55555555555554%" stop-color="#6baaf6" stop-opacity="1"></stop></linearGradient></defs><defs><linearGradient id="grad1_2" x1="43.8%" y1="0%" x2="100%" y2="100%"><stop offset="14.444444444444446%" stop-color="#97bef9" stop-opacity="1"></stop><stop offset="85.55555555555554%" stop-color="#6baaf6" stop-opacity="1"></stop></linearGradient></defs><defs><linearGradient id="grad1_3" x1="43.8%" y1="0%" x2="100%" y2="100%"><stop offset="14.444444444444446%" stop-color="#97bef9" stop-opacity="1"></stop><stop offset="85.55555555555554%" stop-color="#bcd3fb" stop-opacity="1"></stop></linearGradient></defs><defs><linearGradient id="grad1_4" x1="43.8%" y1="0%" x2="100%" y2="100%"><stop offset="14.444444444444446%" stop-color="#dee9fd" stop-opacity="1"></stop><stop offset="85.55555555555554%" stop-color="#bcd3fb" stop-opacity="1"></stop></linearGradient></defs><defs><linearGradient id="grad1_5" x1="43.8%" y1="0%" x2="100%" y2="100%"><stop offset="14.444444444444446%" stop-color="#dee9fd" stop-opacity="1"></stop><stop offset="85.55555555555554%" stop-color="#ffffff" stop-opacity="1"></stop></linearGradient></defs><defs><linearGradient id="grad2_0" x1="0%" y1="0%" x2="56.3%" y2="100%"><stop offset="14.444444444444446%" stop-color="#2196f3" stop-opacity="1"></stop><stop offset="85.55555555555554%" stop-color="#2196f3" stop-opacity="1"></stop></linearGradient></defs><defs><linearGradient id="grad2_1" x1="0%" y1="0%" x2="56.3%" y2="100%"><stop offset="14.444444444444446%" stop-color="#6baaf6" stop-opacity="1"></stop><stop offset="85.55555555555554%" stop-color="#2196f3" stop-opacity="1"></stop></linearGradient></defs><defs><linearGradient id="grad2_2" x1="0%" y1="0%" x2="56.3%" y2="100%"><stop offset="14.444444444444446%" stop-color="#6baaf6" stop-opacity="1"></stop><stop offset="85.55555555555554%" stop-color="#97bef9" stop-opacity="1"></stop></linearGradient></defs><defs><linearGradient id="grad2_3" x1="0%" y1="0%" x2="56.3%" y2="100%"><stop offset="14.444444444444446%" stop-color="#bcd3fb" stop-opacity="1"></stop><stop offset="85.55555555555554%" stop-color="#97bef9" stop-opacity="1"></stop></linearGradient></defs><defs><linearGradient id="grad2_4" x1="0%" y1="0%" x2="56.3%" y2="100%"><stop offset="14.444444444444446%" stop-color="#bcd3fb" stop-opacity="1"></stop><stop offset="85.55555555555554%" stop-color="#dee9fd" stop-opacity="1"></stop></linearGradient></defs><defs><linearGradient id="grad2_5" x1="0%" y1="0%" x2="56.3%" y2="100%"><stop offset="14.444444444444446%" stop-color="#ffffff" stop-opacity="1"></stop><stop offset="85.55555555555554%" stop-color="#dee9fd" stop-opacity="1"></stop></linearGradient></defs><g transform="translate(1920, 0)"><path d="M0 648C-58.9 600 -117.9 551.9 -169 520.2C-220.2 488.5 -263.5 473.2 -333.9 459.5C-404.2 445.9 -501.6 433.9 -524.2 380.9C-546.9 327.9 -494.9 233.8 -503.1 163.5C-511.3 93.1 -579.6 46.6 -648 0L0 0Z" fill="#eff4fe"></path><path d="M0 540C-49.1 500 -98.2 459.9 -140.9 433.5C-183.5 407.1 -219.6 394.3 -278.2 382.9C-336.8 371.6 -418 361.6 -436.9 317.4C-455.8 273.2 -412.4 194.8 -419.3 136.2C-426.1 77.6 -483 38.8 -540 0L0 0Z" fill="#cedefc"></path><path d="M0 432C-39.3 400 -78.6 367.9 -112.7 346.8C-146.8 325.7 -175.7 315.5 -222.6 306.3C-269.5 297.2 -334.4 289.3 -349.5 253.9C-364.6 218.6 -330 155.9 -335.4 109C-340.9 62.1 -386.4 31 -432 0L0 0Z" fill="#aac9fa"></path><path d="M0 324C-29.5 300 -58.9 276 -84.5 260.1C-110.1 244.3 -131.8 236.6 -166.9 229.8C-202.1 222.9 -250.8 217 -262.1 190.4C-273.5 163.9 -247.5 116.9 -251.6 81.7C-255.6 46.6 -289.8 23.3 -324 0L0 0Z" fill="#82b4f7"></path><path d="M0 216C-19.6 200 -39.3 184 -56.3 173.4C-73.4 162.8 -87.8 157.7 -111.3 153.2C-134.7 148.6 -167.2 144.6 -174.7 127C-182.3 109.3 -165 77.9 -167.7 54.5C-170.4 31 -193.2 15.5 -216 0L0 0Z" fill="#4fa0f5"></path><path d="M0 108C-9.8 100 -19.6 92 -28.2 86.7C-36.7 81.4 -43.9 78.9 -55.6 76.6C-67.4 74.3 -83.6 72.3 -87.4 63.5C-91.2 54.6 -82.5 39 -83.9 27.2C-85.2 15.5 -96.6 7.8 -108 0L0 0Z" fill="#2196f3"></path></g><g transform="translate(0, 1080)"><path d="M0 -648C75.1 -644.4 150.3 -640.9 191.6 -589.7C232.9 -538.5 240.4 -439.6 292.7 -402.9C345.1 -366.1 442.4 -391.5 505.6 -367.4C568.9 -343.3 598.2 -269.7 616.3 -200.2C634.3 -130.8 641.2 -65.4 648 0L0 0Z" fill="#eff4fe"></path><path d="M0 -540C62.6 -537 125.2 -534 159.7 -491.4C194.1 -448.7 200.3 -366.4 243.9 -335.7C287.6 -305.1 368.6 -326.2 421.4 -306.1C474.1 -286 498.5 -224.8 513.6 -166.9C528.6 -109 534.3 -54.5 540 0L0 0Z" fill="#cedefc"></path><path d="M0 -432C50.1 -429.6 100.2 -427.2 127.7 -393.1C155.3 -359 160.2 -293.1 195.1 -268.6C230.1 -244.1 294.9 -261 337.1 -244.9C379.3 -228.8 398.8 -179.8 410.9 -133.5C422.9 -87.2 427.4 -43.6 432 0L0 0Z" fill="#aac9fa"></path><path d="M0 -324C37.6 -322.2 75.1 -320.4 95.8 -294.8C116.4 -269.2 120.2 -219.8 146.4 -201.4C172.5 -183.1 221.2 -195.7 252.8 -183.7C284.5 -171.6 299.1 -134.9 308.1 -100.1C317.2 -65.4 320.6 -32.7 324 0L0 0Z" fill="#82b4f7"></path><path d="M0 -216C25 -214.8 50.1 -213.6 63.9 -196.6C77.6 -179.5 80.1 -146.5 97.6 -134.3C115 -122 147.5 -130.5 168.5 -122.5C189.6 -114.4 199.4 -89.9 205.4 -66.7C211.4 -43.6 213.7 -21.8 216 0L0 0Z" fill="#4fa0f5"></path><path d="M0 -108C12.5 -107.4 25 -106.8 31.9 -98.3C38.8 -89.7 40.1 -73.3 48.8 -67.1C57.5 -61 73.7 -65.2 84.3 -61.2C94.8 -57.2 99.7 -45 102.7 -33.4C105.7 -21.8 106.9 -10.9 108 0L0 0Z" fill="#2196f3"></path></g></svg>